<?xml version="1.0" standalone="no"?>
<!DOCTYPE svg PUBLIC "-//W3C//DTD SVG 20010904//EN"
 "http://www.w3.org/TR/2001/REC-SVG-20010904/DTD/svg10.dtd">
<svg version="1.0" xmlns="http://www.w3.org/2000/svg"
 width="1024.000000pt" height="1024.000000pt" viewBox="0 0 1024.000000 1024.000000"
 preserveAspectRatio="xMidYMid meet">

<g transform="translate(0.000000,1024.000000) scale(0.100000,-0.100000)"
fill="#000000" stroke="none">
<path d="M4767 8714 c-919 -95 -1771 -531 -2370 -1214 -529 -603 -833 -1308
-898 -2089 -15 -180 -7 -569 16 -741 86 -663 346 -1269 772 -1805 112 -142
427 -456 568 -569 459 -366 997 -621 1548 -735 267 -55 382 -66 722 -66 339 0
454 10 720 66 815 168 1578 636 2097 1285 470 589 736 1236 798 1944 13 149
13 484 0 630 -59 649 -278 1238 -668 1793 -215 307 -531 625 -842 847 -519
371 -1117 592 -1774 655 -191 18 -511 18 -689 -1z m717 -1292 c24 -58 916
-2200 1415 -3396 204 -489 371 -890 371 -891 0 -1 -167 -2 -370 -3 l-371 -2
-9 23 c-5 12 -94 227 -196 477 -102 250 -206 503 -231 563 l-45 107 -936 -2
-936 -3 -128 -310 c-70 -170 -176 -427 -235 -570 -59 -143 -110 -265 -115
-271 -6 -9 -110 -12 -368 -11 -198 0 -360 2 -360 5 0 2 24 60 54 130 116 271
1655 3962 1722 4129 l29 73 345 0 345 0 19 -48z"/>
<path d="M5100 6551 c0 -5 -119 -297 -264 -648 -145 -351 -291 -704 -324 -785
l-61 -148 661 0 c624 0 660 1 656 18 -12 45 -653 1572 -660 1572 -4 0 -8 -4
-8 -9z"/>
</g>
</svg>
